<svg width="43" height="39" viewBox="0 0 43 39" fill="none" xmlns="http://www.w3.org/2000/svg">
<path id="Vector" d="M22.8845 1.40955C22.8845 1.03572 22.7386 0.67719 22.479 0.412848C22.2193 0.148506 21.8672 0 21.5 0C21.1328 0 20.7807 0.148506 20.521 0.412848C20.2614 0.67719 20.1155 1.03572 20.1155 1.40955V16.1901L18.731 17.1965V10.4871C18.731 7.80892 16.5989 5.63821 13.9683 5.63821C12.5174 5.63821 11.1356 6.39936 9.97266 7.30712C8.77923 8.24306 7.62732 9.48628 6.60556 10.7718C4.56758 13.3315 2.87572 16.2578 2.23055 17.7632C1.7432 18.9049 1.14233 21.0333 0.690986 23.4324C0.234102 25.8484 -0.09264 28.6675 0.0236579 31.2103C0.134418 33.6545 0.668834 36.2565 2.34408 37.7788C4.19931 39.4703 6.83539 39.3462 9.9339 37.7675L14.9042 35.2388C16.0541 34.6535 17.0212 33.7537 17.697 32.6404C18.3729 31.5271 18.731 30.2441 18.731 28.9353V26.7815C18.731 26.4076 18.5851 26.0491 18.3255 25.7848C18.0658 25.5204 17.7137 25.3719 17.3465 25.3719C16.9793 25.3719 16.6272 25.5204 16.3675 25.7848C16.1079 26.0491 15.962 26.4076 15.962 26.7815V28.9353C15.962 29.721 15.7469 30.4912 15.341 31.1594C14.935 31.8277 14.3542 32.3676 13.6637 32.7185L8.69616 35.2472C5.98808 36.6258 4.77803 36.2142 4.18823 35.6758C3.41291 34.971 2.89511 33.4176 2.78989 31.0806C2.68743 28.8394 2.97818 26.2599 3.41014 23.9624C3.84487 21.6507 4.39867 19.7591 4.76972 18.888C5.29583 17.6532 6.84647 14.9412 8.75707 12.545C9.70407 11.3553 10.7037 10.2925 11.6618 9.54267C12.6531 8.76459 13.4311 8.45731 13.9683 8.45731C14.4971 8.45731 15.0042 8.67116 15.3781 9.05181C15.752 9.43246 15.962 9.94874 15.962 10.4871V19.2094L11.0055 22.8178C10.7275 23.0425 10.5449 23.3672 10.4954 23.725C10.4458 24.0828 10.5331 24.4463 10.7392 24.7404C10.9454 25.0346 11.2545 25.2369 11.603 25.3056C11.9514 25.3743 12.3124 25.3042 12.6115 25.1098L21.5 18.6455L30.3885 25.1098C30.5361 25.2242 30.7047 25.3072 30.8845 25.354C31.0642 25.4007 31.2513 25.4102 31.4347 25.3819C31.6182 25.3536 31.7941 25.2881 31.9522 25.1892C32.1102 25.0903 32.2471 24.9601 32.3548 24.8062C32.4624 24.6524 32.5386 24.4782 32.5788 24.2938C32.619 24.1094 32.6224 23.9187 32.5888 23.733C32.5552 23.5472 32.4853 23.3702 32.3832 23.2126C32.2811 23.0549 32.1489 22.9197 31.9945 22.815L27.038 19.2094V10.4871C27.038 9.94874 27.248 9.43246 27.6219 9.05181C27.9958 8.67116 28.5029 8.45731 29.0317 8.45731C29.5689 8.45731 30.3469 8.76741 31.3382 9.54267C32.2963 10.2925 33.2932 11.3553 34.2457 12.5478C36.1508 14.9441 37.7014 17.6532 38.2303 18.888C38.6013 19.7591 39.1551 21.6507 39.5899 23.9624C40.0218 26.2571 40.3098 28.8394 40.2101 31.0806C40.1049 33.4176 39.5899 34.971 38.8118 35.6758C38.222 36.2114 37.0119 36.6258 34.3038 35.2472L29.3335 32.7185C28.6435 32.3672 28.0633 31.8271 27.6578 31.1589C27.2524 30.4907 27.0378 29.7207 27.038 28.9353V26.7815C27.038 26.4076 26.8921 26.0491 26.6325 25.7848C26.3728 25.5204 26.0207 25.3719 25.6535 25.3719C25.2863 25.3719 24.9341 25.5204 24.6745 25.7848C24.4149 26.0491 24.269 26.4076 24.269 26.7815V28.9353C24.269 30.2441 24.6271 31.5271 25.3029 32.6404C25.9788 33.7537 26.9459 34.6535 28.0957 35.2388L33.0661 37.7675C36.1674 39.3462 38.7979 39.4674 40.6559 37.7788C42.3312 36.2565 42.8656 33.6545 42.9763 31.2103C43.0926 28.6675 42.7659 25.8484 42.3118 23.4324C41.8577 21.0305 41.2596 18.9049 40.7667 17.7604C40.1243 16.2578 38.4324 13.3315 36.3944 10.7718C35.3699 9.48628 34.2208 8.24306 33.0273 7.30712C31.8644 6.39936 30.4826 5.63821 29.0317 5.63821C26.4011 5.63821 24.269 7.80892 24.269 10.4871V17.1965L22.8845 16.1901V1.40955Z" fill="#1379B1"/>
</svg>
