<svg width="45" height="43" viewBox="0 0 45 43" fill="none" xmlns="http://www.w3.org/2000/svg">
<path id="Vector" d="M2.83611 14.9145V14.8848C2.83607 11.9444 3.69888 9.06996 5.31569 6.62399C6.93249 4.17803 9.23085 2.27017 11.9208 1.14111C14.6108 0.0120444 17.5718 -0.287629 20.4303 0.279894C23.2888 0.847416 25.9167 2.25671 27.9825 4.32997C29.6079 3.52029 31.4234 3.17986 33.2285 3.34629C35.0336 3.51272 36.7579 4.17954 38.211 5.27307C39.6641 6.36659 40.7894 7.84426 41.4626 9.54282C42.1358 11.2414 42.3306 13.0947 42.0256 14.898C42.474 14.94 42.9091 15.0748 43.3036 15.2941C43.6981 15.5134 44.0436 15.8123 44.3185 16.1724C44.5935 16.5324 44.7919 16.9458 44.9015 17.3867C45.0111 17.8276 45.0295 18.2865 44.9555 18.7349C43.4742 27.7285 39.8102 33.421 33.9701 35.8157V38.0385C33.9701 39.3544 33.4522 40.6163 32.5303 41.5468C31.6084 42.4773 30.358 43 29.0542 43H15.9452C14.6414 43 13.391 42.4773 12.4691 41.5468C11.5472 40.6163 11.0293 39.3544 11.0293 38.0385V35.8157C5.18919 33.421 1.52521 27.7285 0.0438847 18.7349C-0.0276063 18.2984 -0.0116206 17.8519 0.0908956 17.4218C0.193412 16.9917 0.380376 16.5867 0.640722 16.2308C0.901068 15.8749 1.22951 15.5753 1.6066 15.3498C1.98369 15.1243 2.40178 14.9774 2.83611 14.9178V14.9145ZM6.11337 14.8848H9.39063C9.39063 12.6916 10.2538 10.5883 11.7904 9.03756C13.3269 7.48679 15.4108 6.61557 17.5838 6.61557C19.7567 6.61557 21.8407 7.48679 23.3772 9.03756C24.9137 10.5883 25.7769 12.6916 25.7769 14.8848H29.0542C29.0542 11.8144 27.8457 8.86976 25.6946 6.69868C23.5435 4.5276 20.6259 3.30789 17.5838 3.30789C14.5416 3.30789 11.6241 4.5276 9.47298 6.69868C7.32186 8.86976 6.11337 11.8144 6.11337 14.8848ZM12.6679 14.8848H22.4997C22.4997 13.5689 21.9818 12.3069 21.0598 11.3764C20.1379 10.446 18.8876 9.92325 17.5838 9.92325C16.28 9.92325 15.0296 10.446 14.1077 11.3764C13.1858 12.3069 12.6679 13.5689 12.6679 14.8848ZM35.1696 14.8848H38.6795C38.9269 13.9072 38.95 12.8856 38.747 11.8978C38.5439 10.9099 38.1201 9.98184 37.5079 9.18431C36.8956 8.38678 36.1111 7.74083 35.214 7.29567C34.317 6.85052 33.3311 6.61791 32.3315 6.61557C31.5449 6.61557 30.7977 6.75449 30.1029 7.00918C30.683 7.94856 31.1615 8.96071 31.5285 10.0225C32.1527 9.86622 32.8087 9.8984 33.4149 10.115C34.0212 10.3316 34.551 10.7231 34.9388 11.241C35.3266 11.7588 35.5552 12.3801 35.5962 13.0279C35.6372 13.6757 35.4889 14.3213 35.1696 14.8848ZM30.6928 36.3847H14.3065V38.0385C14.3065 38.4771 14.4792 38.8978 14.7865 39.2079C15.0938 39.5181 15.5106 39.6923 15.9452 39.6923H29.0542C29.4888 39.6923 29.9056 39.5181 30.2129 39.2079C30.5202 38.8978 30.6928 38.4771 30.6928 38.0385V36.3847ZM13.1529 33.077H31.8464C37.0442 31.3901 40.3345 26.6204 41.7241 18.1924H3.27526C4.66482 26.6204 7.95519 31.3901 13.1529 33.077Z" fill="#0360D9"/>
</svg>
