<svg width="45" height="45" viewBox="0 0 45 45" fill="none" xmlns="http://www.w3.org/2000/svg">
<path id="Vector" d="M16.875 2.10938C16.875 0.944824 17.8154 0 18.9844 0H26.0156C27.1846 0 28.125 0.944824 28.125 2.10938C28.125 3.27393 27.1846 4.21875 26.0156 4.21875H24.6094V7.17363C27.3076 7.54102 29.7773 8.60273 31.8428 10.1689L33.9346 8.08154L32.9414 7.0875C32.1152 6.26309 32.1152 4.92803 32.9414 4.10449C33.7676 3.28008 35.1035 3.28008 35.9209 4.10449L40.8955 9.0791C41.7217 9.89648 41.7217 11.2324 40.8955 12.0586C40.0693 12.8848 38.7334 12.8848 37.916 12.0586L36.9141 11.0654L34.8311 13.1572C36.3955 15.2227 37.459 17.6924 37.8281 20.3906H40.7812V18.9844C40.7812 17.8154 41.7217 16.875 42.8906 16.875C44.0596 16.875 45 17.8154 45 18.9844V26.0156C45 27.1846 44.0596 28.125 42.8906 28.125C41.7217 28.125 40.7812 27.1846 40.7812 26.0156V24.6094H37.8281C37.459 27.3076 36.3955 29.7773 34.8311 31.8428L36.9141 33.9346L37.916 32.9414C38.7334 32.1152 40.0693 32.1152 40.8955 32.9414C41.7217 33.7676 41.7217 35.1035 40.8955 35.9209L35.9209 40.8955C35.1035 41.7217 33.7676 41.7217 32.9414 40.8955C32.1152 40.0693 32.1152 38.7334 32.9414 37.916L33.9346 36.9141L31.8428 34.8311C29.7773 36.3955 27.3076 37.459 24.6094 37.8281V40.7812H26.0156C27.1846 40.7812 28.125 41.7217 28.125 42.8906C28.125 44.0596 27.1846 45 26.0156 45H18.9844C17.8154 45 16.875 44.0596 16.875 42.8906C16.875 41.7217 17.8154 40.7812 18.9844 40.7812H20.3906V37.8281C17.6924 37.459 15.2227 36.3955 13.1572 34.8311L11.0654 36.9229L12.0586 37.916C12.8848 38.7334 12.8848 40.0693 12.0586 40.8955C11.2324 41.7217 9.89648 41.7217 9.0791 40.8955L4.10449 35.9209C3.28008 35.1035 3.28008 33.7676 4.10449 32.9414C4.92803 32.1152 6.26396 32.1152 7.0875 32.9414L8.08154 33.9346L10.1689 31.8428C8.60273 29.7773 7.54102 27.3076 7.17363 24.6094H4.21875V26.0156C4.21875 27.1846 3.27393 28.125 2.10938 28.125C0.944824 28.125 0 27.1846 0 26.0156V18.9844C0 17.8154 0.944824 16.875 2.10938 16.875C3.27393 16.875 4.21875 17.8154 4.21875 18.9844V20.3906H7.17363C7.54102 17.6924 8.60273 15.2227 10.1689 13.1572L8.08154 11.0654L7.0875 12.0586C6.26309 12.8848 4.92803 12.8848 4.10449 12.0586C3.28008 11.2324 3.28008 9.89648 4.10449 9.0791L9.0791 4.10449C9.89648 3.28096 11.2324 3.28096 12.0586 4.10449C12.8848 4.92803 12.8848 6.26396 12.0586 7.0875L11.0654 8.08154L13.1572 10.1689C15.2227 8.60273 17.6924 7.54102 20.3906 7.17363V4.21875H18.9844C17.8154 4.21875 16.875 3.2748 16.875 2.10938ZM16.875 15.4688C14.5459 15.4688 12.6562 17.3584 12.6562 19.6875C12.6562 22.0166 14.5459 23.9062 16.875 23.9062C19.2041 23.9062 21.0938 22.0166 21.0938 19.6875C21.0938 17.3584 19.2041 15.4688 16.875 15.4688ZM26.7188 28.8281C27.8877 28.8281 28.8281 27.8877 28.8281 26.7188C28.8281 25.5498 27.8877 24.6094 26.7188 24.6094C25.5498 24.6094 24.6094 25.5498 24.6094 26.7188C24.6094 27.8877 25.5498 28.8281 26.7188 28.8281Z" fill="#0360D9"/>
</svg>
