<svg width="34" height="37" viewBox="0 0 34 37" fill="none" xmlns="http://www.w3.org/2000/svg">
<path id="Vector" d="M14.8889 0C18.5044 0.00023431 21.9962 1.30773 24.7132 3.6786C27.4303 6.04948 29.1869 9.32182 29.6554 12.8853L33.843 19.4324C34.1185 19.8634 34.0626 20.5054 33.4242 20.7792L29.7782 22.3295V27.75C29.7782 28.7313 29.3861 29.6724 28.688 30.3663C27.9899 31.0602 27.0431 31.45 26.0559 31.45H22.3354L22.3336 37H5.58313V30.1661C5.58313 27.9831 4.77166 25.9167 3.26784 24.0519C1.51417 21.8754 0.414763 19.2507 0.096275 16.4803C-0.222213 13.7098 0.253178 10.9063 1.46768 8.39264C2.68218 5.87903 4.58638 3.75759 6.96089 2.27275C9.33541 0.787907 12.0836 6.87446e-05 14.8889 0ZM14.8889 3.7C12.785 3.69991 10.7239 4.29061 8.94301 5.40403C7.1621 6.51746 5.73385 8.10832 4.8228 9.99335C3.91175 11.8784 3.55495 13.9809 3.79352 16.0587C4.03209 18.1365 4.85632 20.105 6.17125 21.7375C8.20736 24.2609 9.30545 27.1339 9.30545 30.1661V33.3H18.6113L18.615 27.75H26.0559V19.8912L28.9407 18.6628L26.0689 14.1765L25.9628 13.3588C25.6105 10.6873 24.2928 8.23425 22.2553 6.45712C20.2178 4.67998 17.5996 3.70004 14.8889 3.7ZM13.9025 10.6616L14.8889 11.6421L15.8753 10.6616C16.1757 10.3523 16.5351 10.1056 16.9324 9.93581C17.3298 9.76606 17.7571 9.67666 18.1896 9.67284C18.6221 9.66902 19.051 9.75085 19.4513 9.91355C19.8516 10.0763 20.2153 10.3166 20.5212 10.6205C20.827 10.9244 21.0689 11.2858 21.2328 11.6837C21.3966 12.0815 21.4791 12.5078 21.4755 12.9377C21.4718 13.3676 21.382 13.7924 21.2114 14.1874C21.0408 14.5824 20.7927 14.9397 20.4817 15.2385L14.8889 20.7996L9.29614 15.2385C8.98513 14.9397 8.73707 14.5824 8.56645 14.1874C8.39584 13.7924 8.30607 13.3676 8.3024 12.9377C8.29873 12.5078 8.38123 12.0815 8.54508 11.6837C8.70892 11.2858 8.95084 10.9244 9.25671 10.6205C9.56259 10.3166 9.92629 10.0763 10.3266 9.91355C10.7269 9.75085 11.1558 9.66902 11.5883 9.67284C12.0207 9.67666 12.4481 9.76606 12.8454 9.93581C13.2428 10.1056 13.6021 10.3523 13.9025 10.6616Z" fill="#0360D9"/>
</svg>
