<svg width="140" height="93" viewBox="0 0 140 93" fill="none" xmlns="http://www.w3.org/2000/svg">
<g id="Layer_1" clip-path="url(#clip0_60_5242)">
<path id="Vector" d="M136.19 0.559998C136.51 0.259998 136.09 0.1 136.08 0C135.65 0.6 136.28 0.619998 136.19 0.559998Z" fill="#D020C9"/>
<path id="Vector_2" d="M131.74 6.51999L131.71 6.29999L131.22 7.36999L131.74 6.51999Z" fill="#D020C9"/>
<path id="Vector_3" d="M126.65 11.32C127.65 11.39 128.44 9.50002 129.51 8.83002H129.77V8.03003C128.83 9.21706 127.786 10.3181 126.65 11.32Z" fill="#D020C9"/>
<path id="Vector_4" d="M122.85 12.77C123.21 12.77 122.42 13.51 123.55 12.23C123.498 12.2539 123.445 12.2739 123.39 12.29C123.218 12.459 123.038 12.6192 122.85 12.77Z" fill="#D020C9"/>
<path id="Vector_5" d="M123.39 12.29C122.87 12.46 123.92 11.77 123.39 12.29V12.29Z" fill="#D020C9"/>
<path id="Vector_6" d="M121 14.79L121.54 13.93C121.28 13.93 120.61 14.54 120.77 14.23C120.13 14.99 120.39 14.99 121 14.79Z" fill="#D020C9"/>
<path id="Vector_7" d="M120.69 15.82L120.98 15.39C120.87 15.4 120.75 15.47 120.69 15.82Z" fill="#D020C9"/>
<path id="Vector_8" d="M121.6 14.48L120.97 15.39C121.15 15.39 121.33 15.53 121.27 14.99C121.37 15.2 121.38 14.9 121.6 14.48Z" fill="#D020C9"/>
<path id="Vector_9" d="M122.13 14.13C122.63 13.86 123.22 13.44 122.67 14.3C123.97 12.93 123.42 12.75 122.13 14.13Z" fill="#D020C9"/>
<path id="Vector_10" d="M126.9 12.11L127.57 11.76L127.87 11.16C127.72 11.46 126.71 11.99 126.9 12.11Z" fill="#D020C9"/>
<path id="Vector_11" d="M116.36 18.99C116.43 19.14 116.89 18.99 117.08 19.1L117.47 18.44C117.13 18.63 116.6 19.09 116.36 18.99Z" fill="#D020C9"/>
<path id="Vector_12" d="M117.08 19.08L116.51 20.08C117.21 19.37 117.25 19.15 117.08 19.08Z" fill="#D020C9"/>
<path id="Vector_13" d="M121.12 16.51L122.02 14.88L120.88 16.76L121.12 16.51Z" fill="#D020C9"/>
<path id="Vector_14" d="M113.5 22.17C113.5 21.92 113.6 21.69 113.65 21.45C113.53 21.85 113.42 22.26 113.32 22.67L113.5 22.17Z" fill="#D020C9"/>
<path id="Vector_15" d="M111.75 24.46C111.81 23.9 110.96 24.68 111.12 24.17C110.762 24.7941 110.499 25.4682 110.34 26.17C110.658 25.4902 111.143 24.9019 111.75 24.46Z" fill="#D020C9"/>
<path id="Vector_16" d="M110.02 27.2C110.149 26.8744 110.256 26.5403 110.34 26.2C110.192 26.5186 110.084 26.8546 110.02 27.2Z" fill="#D020C9"/>
<path id="Vector_17" d="M115.2 21.43C115.031 21.4283 114.862 21.4611 114.706 21.5265C114.55 21.5918 114.408 21.6883 114.29 21.81H114.91L115.2 21.43Z" fill="#D020C9"/>
<path id="Vector_18" d="M115.28 21.35L115.2 21.43C115.26 21.43 115.29 21.42 115.28 21.35Z" fill="#D020C9"/>
<path id="Vector_19" d="M118.82 18.26C118.54 18.9 117.82 20.05 118.97 19.36C119.07 18.82 118.41 19.22 118.82 18.26Z" fill="#D020C9"/>
<path id="Vector_20" d="M116.03 21.29L116.89 20.48C116.79 20.42 116.52 20.48 116.65 20.15C116.44 20.52 116.24 20.92 116.03 21.29Z" fill="#D020C9"/>
<path id="Vector_21" d="M115.76 21.82L116.04 21.3L115.72 21.6L115.76 21.82Z" fill="#D020C9"/>
<path id="Vector_22" d="M111.6 25.73C111.406 26.283 111.133 26.8051 110.79 27.28C111.252 26.7634 111.686 26.2226 112.09 25.66C111.98 25.51 111.96 25.12 111.6 25.73Z" fill="#D020C9"/>
<path id="Vector_23" d="M113.19 23.78L113.13 23.88C113.21 23.85 113.25 23.81 113.19 23.78Z" fill="#D020C9"/>
<path id="Vector_24" d="M107.57 32.8L107.68 32.74L107.63 32.69L107.57 32.8Z" fill="#D020C9"/>
<path id="Vector_25" d="M112.17 25.62C112.447 25.3472 112.638 24.9997 112.72 24.62L112.04 25.62C112.06 25.73 112.09 25.76 112.17 25.62Z" fill="#D020C9"/>
<path id="Vector_26" d="M109.24 28.83C109.46 28.64 109.69 28.42 109.92 28.18C109.67 28.33 109.2 28.69 109.24 28.83Z" fill="#D020C9"/>
<path id="Vector_27" d="M112.93 23.99V23.91C112.79 23.99 112.84 23.99 112.93 23.99Z" fill="#D020C9"/>
<path id="Vector_28" d="M112.93 23.99C112.835 24.2118 112.765 24.4431 112.72 24.68C112.873 24.4361 113.01 24.1822 113.13 23.92C113.067 23.9521 112.999 23.9756 112.93 23.99Z" fill="#D020C9"/>
<path id="Vector_29" d="M109.33 35.62C109 35.41 109.11 34.02 110.05 33.22C110.28 32.11 108.81 32.13 107.68 32.74C107.84 32.85 107.91 32.89 107.68 34.09C107.99 33.76 109.28 31.97 109.15 33C108.62 34.44 108.49 34.08 107.99 34.68C108.68 34.3 107.92 36.76 108.73 36.68L108.99 35.37C109.11 35.42 109.1 35.92 109.33 35.62Z" fill="#D020C9"/>
<path id="Vector_30" d="M108.76 30.72C108.82 30.56 108.88 30.41 108.95 30.26C108.589 30.7418 108.162 31.1695 107.68 31.53C107.48 32.36 107.53 32.53 107.68 32.68L108.84 30.54L108.76 30.72Z" fill="#D020C9"/>
<path id="Vector_31" d="M110.1 28.38C110.26 28.94 109.82 30.02 110.59 29.66C111.3 28.45 110.78 28.66 111.1 27.81C109.96 29.81 111.24 27.1 110.1 28.39C110.255 27.9996 110.453 27.6274 110.69 27.28L109.87 28.18H109.92C110.02 28.13 110.06 28.11 109.98 28.18C110.019 28.234 110.046 28.2952 110.06 28.36C109.63 28.88 109.91 28.36 109.98 28.18C109.98 28.18 109.98 28.18 109.98 28.12L108.98 30.23C109.4 29.6428 109.774 29.0244 110.1 28.38Z" fill="#D020C9"/>
<path id="Vector_32" d="M118.82 20.86C118.802 20.8716 118.781 20.8778 118.76 20.8778C118.739 20.8778 118.718 20.8716 118.7 20.86C118.6 20.99 118.6 21.04 118.82 20.86Z" fill="#D020C9"/>
<path id="Vector_33" d="M118.01 21.34C118.056 21.0563 118.206 20.7997 118.43 20.62C118.84 20.38 118.58 20.76 118.7 20.84C118.83 20.53 119.24 19.84 118.4 20.4L118.34 20.56C117.6 21.09 116.44 21.61 116.5 21.45C117.005 21.532 117.522 21.4943 118.01 21.34Z" fill="#D020C9"/>
<path id="Vector_34" d="M113.99 24.76C113.65 25.3 113.31 25.76 112.99 26.38C113.27 26.1848 113.561 26.0046 113.86 25.84L113.65 25.74C114.4 24.99 114.04 24.99 113.99 24.76Z" fill="#D020C9"/>
<path id="Vector_35" d="M107.27 32.9L106.98 32.48C106.993 32.9183 107.029 33.3557 107.09 33.79C107.135 33.4904 107.195 33.1933 107.27 32.9Z" fill="#D020C9"/>
<path id="Vector_36" d="M106.33 35.3L106 35.07L105.97 35.78L106.33 35.3Z" fill="#D020C9"/>
<path id="Vector_37" d="M103.71 37.58L103.19 37.46C103.361 37.5109 103.534 37.551 103.71 37.58Z" fill="#D020C9"/>
<path id="Vector_38" d="M107.07 39.29L107.24 39.17C107.04 39.18 106.94 39.21 107.07 39.29Z" fill="#D020C9"/>
<path id="Vector_39" d="M125.24 90.99C125.89 91.81 126.93 92.75 126.94 92.28C126.88 92.11 126.82 91.94 126.77 91.77C126.205 91.6357 125.68 91.3683 125.24 90.99Z" fill="#D020C9"/>
<path id="Vector_40" d="M131.31 58.8V59.06L131.93 59.31L131.31 58.8Z" fill="#D020C9"/>
<path id="Vector_41" d="M129.5 59.26C129.429 58.9197 129.332 58.5854 129.21 58.26C129.27 58.49 129.36 58.82 129.5 59.26Z" fill="#D020C9"/>
<path id="Vector_42" d="M83.9601 32.31L83.3101 32.69C84.2401 32.78 83.8601 32.52 83.9601 32.31Z" fill="#D020C9"/>
<path id="Vector_43" d="M106.36 60.9C106.401 61.4985 106.501 62.0915 106.66 62.67C106.6 61.77 106.77 60.99 106.36 60.9Z" fill="#D020C9"/>
<path id="Vector_44" d="M107.1 34.08C106.76 34.01 106.59 34.02 106.56 34.08C106.91 34.2 107.12 34.21 107.1 34.08Z" fill="#D020C9"/>
<path id="Vector_45" d="M107.38 64.58C107.38 64.45 107.38 64.33 107.38 64.2C107.099 63.7161 106.871 63.2031 106.7 62.67C106.688 63.368 106.929 64.0468 107.38 64.58Z" fill="#D020C9"/>
<path id="Vector_46" d="M17.5999 59.85L17.45 59.95C17.45 59.95 17.5999 59.99 17.5999 59.85Z" fill="#D020C9"/>
<path id="Vector_47" d="M2.43994 76.86C2.53195 76.5556 2.64557 76.2582 2.77994 75.97C2.61815 76.2458 2.50326 76.5465 2.43994 76.86Z" fill="#D020C9"/>
<path id="Vector_48" d="M105.88 42.99C105.88 43.1 105.97 43.2 106.07 43.22C106.024 43.1975 105.983 43.1653 105.95 43.1256C105.917 43.0859 105.893 43.0397 105.88 42.99Z" fill="#D020C9"/>
<path id="Vector_49" d="M111.9 68.23C111.93 68.1 111.93 68.13 111.9 68.23V68.23Z" fill="#D020C9"/>
<path id="Vector_50" d="M104.18 44.57C104.094 44.7914 104.024 45.0186 103.97 45.25C104.053 45.0277 104.123 44.8006 104.18 44.57Z" fill="#D020C9"/>
<path id="Vector_51" d="M103.96 44.66L104.05 44.19C103.99 44.11 103.94 44.17 103.96 44.66Z" fill="#D020C9"/>
<path id="Vector_52" d="M103.9 46.14C103.902 45.842 103.925 45.5446 103.97 45.25C103.97 45.36 103.91 45.4 103.9 45.37V46.14Z" fill="#D020C9"/>
<path id="Vector_53" d="M49.49 35.46C49.4501 35.465 49.4098 35.465 49.37 35.46C48.97 35.8 49.17 35.7 49.49 35.46Z" fill="#D020C9"/>
<path id="Vector_54" d="M135.15 82.09C135.3 82.3303 135.372 82.6114 135.356 82.8943C135.34 83.1773 135.237 83.4483 135.06 83.67C135.52 83.67 135.96 83.61 136.41 83.56C136.023 83.043 135.602 82.552 135.15 82.09Z" fill="#D020C9"/>
<path id="Vector_55" d="M95.26 34.43L96.26 35.16C94.65 35.34 93.72 34.82 94.64 35.68C94.92 35.06 96.07 35.36 97.2 35.68C98.33 36 99.44 36.47 99.77 35.87L100.42 36.43C100.2 36.34 100.14 36.43 99.93 36.3C101.15 37.47 101.41 35.78 103.2 36.84C103.8 37.24 104.2 37.62 103.66 37.57L105.24 37.93C105.65 38.15 105.44 38.32 105.04 38.1C105.8 38.38 106.5 38.78 107.22 39.1C107.776 39.1023 108.331 39.1491 108.88 39.24C109.32 39.71 108.53 39.24 108.59 39.44L109.94 39.81C110.24 40.37 109.08 40.13 108.3 39.64C108.7 41.42 109.48 39.83 111.3 41.99L110.16 41.45C110.43 42.55 111.39 42.84 112.29 44C112.17 43.62 110.6 41.45 111.99 42C112.4 42.432 112.935 42.7256 113.52 42.84C113.25 43.23 113.92 43.6 114.7 44.15L114.27 44.63C115.19 45.1 115.27 44.79 115.98 44.93C116.271 45.1112 116.496 45.3809 116.622 45.6996C116.748 46.0182 116.768 46.3689 116.68 46.7C117.97 47.98 116.23 45.25 117.94 46.59C118.383 47.1378 118.906 47.6164 119.49 48.01C119.78 48.21 120.09 48.39 120.43 48.59L121.43 49.3C122.03 50.23 121.03 49.44 121.17 49.85L122.17 50.17C122.33 50.35 122.17 50.4 122.08 50.43C122.78 50.87 122.58 50.03 123.6 50.83C124.42 50.57 124.52 53.48 126.14 54.16C126.24 54.57 125.71 54.26 125.59 54.5C126.134 54.8854 126.655 55.3028 127.15 55.75C127.48 56.01 127.8 56.23 128.6 56.75L129.11 58.22C128.87 57.06 130.21 57.86 131.21 58.76C131.21 58.29 131.21 57.88 131.21 57.62L132.6 59.27C132.6 59.54 132.34 59.47 131.94 59.27C132.06 59.37 132.17 59.46 132.26 59.52C132.42 60.27 131.91 60.12 131.34 59.85V59.02C130.75 58.79 130.16 58.62 129.89 58.9C130.076 59.0287 130.235 59.1916 130.36 59.38C130.21 59.32 130.09 59.3 130.06 59.38C130.03 59.46 130.26 59.58 130.56 59.78L130.17 60.53H130.47C130.76 61.35 131.1 62.14 131.33 62.98C132.03 63.64 132.79 64.24 133.57 64.98C133.993 65.3776 134.375 65.8165 134.71 66.29C135.09 66.8626 135.425 67.4645 135.71 68.09C134.98 67.55 134.86 68.22 134.26 68.38C134.61 67.38 133.26 66.32 132.73 64.93C133 65.67 132.66 65.63 132.48 65.49C132.75 65.86 133.04 66.22 133.31 66.6L134.02 67.76C133.53 67.88 133.85 68.43 133.89 69.16C134.65 68.34 135.24 70.83 135.71 71.85C135.39 72.01 135.01 71.85 134.76 70.52C134.39 72.13 136.35 72.08 136.07 73.66C135.99 73.34 136 73.16 135.8 73.07C136.062 73.5273 136.222 74.0354 136.27 74.56C136.34 75.07 136.27 75.42 136.06 75.24V74.94C136.19 75.94 136.34 77.52 136.41 78.89C136.48 80.26 136.53 81.41 136.93 81.65C136.531 81.499 136.152 81.3009 135.8 81.06C136.627 82.4526 137.193 83.9843 137.47 85.58C137.2 85.25 136.55 85.25 135.99 85.05C135.699 84.9828 135.445 84.8061 135.281 84.5565C135.117 84.3069 135.056 84.0037 135.11 83.71C134.957 83.9246 134.823 84.1521 134.71 84.39C134.542 84.7098 134.405 85.0446 134.3 85.39C134.56 85.25 135.59 85.24 135.45 85.68C135.077 85.8331 134.716 86.0136 134.37 86.22C134.011 86.4254 133.623 86.5771 133.22 86.67C133.42 86.6 133.65 86.84 133.73 87.16C133.794 87.3397 133.796 87.5354 133.736 87.7164C133.676 87.8974 133.558 88.0534 133.4 88.16C133.4 87.96 132.73 87.24 132.86 87.03C132.746 87.335 132.613 87.6323 132.46 87.92C132.268 88.2129 132.057 88.4935 131.83 88.76C132.21 88.41 131.6 87.86 131.21 87.59C131.31 87.67 131 87.78 130.6 87.79C130.2 87.8 129.74 87.79 129.53 87.79C129.73 87.9 129.95 87.98 130.17 88.09C129.483 88.0302 128.793 88.1544 128.17 88.45C127.787 88.6083 127.369 88.663 126.958 88.6086C126.548 88.5541 126.159 88.3925 125.83 88.14C126.22 88.14 127.12 87.29 126.36 86.58C125.615 86.7844 124.841 86.8655 124.07 86.82C122.924 86.7788 121.819 86.3802 120.91 85.68V85.14C120.47 84.77 120.03 84.4 119.6 84.01C120.26 84.19 121.39 84.6 122.55 84.96C123.71 85.32 124.89 85.62 125.64 85.81C125.23 85.06 125.73 85.39 124.87 84.55C124.8 84.04 125.65 84.71 125.87 84.91C125.251 84.2269 124.679 83.5019 124.16 82.74C123.71 83.29 122.27 81.36 121.89 81.74C122.683 82.5004 123.521 83.2117 124.4 83.87C124.19 84.14 123.53 84.11 122.76 83.75C121.847 83.3089 121.08 82.6147 120.55 81.75C120.46 81.13 121.78 81.44 121.93 81.26C121.288 80.808 120.769 80.2031 120.42 79.5L121.24 80.08C120.77 78.92 119.38 78.89 119.13 77.29C118.88 76.83 119.05 75.54 118.67 75.67C118.45 76.78 116.53 78.19 115.74 78C115.384 76.8785 115.129 75.7272 114.98 74.56C115.08 73.56 116.85 74.95 116.98 74.06C116.81 74.12 116.38 73.83 116.22 73.7C116.09 73.15 116.82 73.61 116.22 72.64C115.52 72.8 115.1 70.54 115.44 72.44C114.7 71.53 114.99 71.3 114.33 70.13C114.14 70.72 112.43 69.75 111.76 68.76C111.94 68.76 112.03 68.42 112.07 68.26C111.678 67.3454 111.344 66.4068 111.07 65.45C110.78 64.61 110.56 63.77 110.17 62.74C110.25 62.49 110.06 61.44 110.5 61.74C110.163 61.4453 109.905 61.0705 109.75 60.65C109.91 59.23 110.3 62.04 110.67 60.87C110.28 60.92 109.59 59.41 109.11 58.55C108.56 59.02 109.67 60.71 110.18 61.55C109.79 61.69 109.25 61.44 108.67 60.87C107.951 60.1397 107.381 59.2771 106.99 58.33C106.3 56.55 107.31 57.4 107.11 57.12C106.964 56.0293 106.537 54.9954 105.87 54.12C105.314 53.3224 105.092 52.3392 105.25 51.38C105.69 50.15 106.25 51.23 106.67 50.93C107.05 52.4 106.59 53.28 106.8 54.3C106.8 53.87 106.8 53.43 106.86 53.01C107.16 53.6354 107.327 54.3165 107.35 55.01C107.424 54.5563 107.424 54.0937 107.35 53.64C107.35 53.01 107.22 52.23 107.12 51.4C106.937 49.7825 106.974 48.1476 107.23 46.54C107.06 46.07 106.9 45.24 106.67 45.61L106.73 46.46C106.27 47.24 106.17 44.82 105.94 45.9C105.783 45.2702 105.683 44.6277 105.64 43.98C105.553 43.22 105.642 42.4502 105.9 41.73L106.56 41.53C106.382 41.729 106.25 41.9648 106.174 42.2207C106.098 42.4766 106.08 42.7461 106.12 43.01C105.92 42.27 107.41 40.71 106.76 39.8L106.12 40.85C105.877 39.4291 106.001 37.9696 106.48 36.61C105.7 37.08 106.48 36.96 105.48 37.79C106.04 37.47 105.75 38.4 105.48 39.26C105.21 40.12 105.12 40.95 105.72 40.26C104.72 41.18 104.93 42.04 104.11 43.41C104.32 43.41 104.56 42.94 104.31 44.21C104.377 44.2966 104.428 44.3949 104.46 44.5V44.59V44.52C104.46 44.58 104.46 44.58 104.46 44.52C104.535 44.2887 104.665 44.0793 104.84 43.91C105.03 44.4421 105.118 45.0052 105.1 45.57C105.126 46.1286 105.2 46.6839 105.32 47.23C105.2 47.97 105.09 46.92 104.87 47.32L105.2 48.32C104.76 48.42 104.56 50.32 104.2 48.56L104.27 50.16C104.052 51.1549 104.1 52.1898 104.41 53.16C104.41 53.94 105.19 54.96 104.73 54.37L105.48 56.75H105.38C105.89 59.15 107.38 61.34 107.58 64.17C108.01 65.0509 108.351 65.972 108.6 66.92L108.35 67.31C108.86 68.22 109.35 70.31 109.86 70.53C109.62 71.27 110.17 72.41 110.86 73.58C111.55 74.75 112.39 75.88 112.76 76.72L113.23 76.52C113.911 77.6554 114.695 78.7265 115.57 79.72L115.9 79.4C116.9 80.32 117.44 82.4 118.68 84.11C118.46 84.11 118.17 83.61 118.06 83.25C118.452 84.5605 119.255 85.7104 120.35 86.53C121.427 87.3338 122.401 88.2676 123.25 89.31C123.732 89.5295 124.162 89.85 124.51 90.25L124.36 90.18L124.59 90.34C124.799 90.5838 125.026 90.8112 125.27 91.02C125.06 90.79 124.88 90.58 124.71 90.41C125.31 90.7799 125.965 91.0533 126.65 91.22L126.8 91.8H126.99C127.74 92.22 127.67 91.8 127.38 91.31C127.738 91.3664 128.102 91.3664 128.46 91.31C128.69 91.76 129.25 91.78 129.82 91.73C130.371 91.6077 130.948 91.682 131.45 91.94C131.7 91.68 132.71 91.45 133.58 90.94C134.45 90.43 135.12 89.66 134.97 89.2C135.06 89.27 135.26 89.2 134.97 89.43C135.687 89.0511 136.252 88.4366 136.57 87.69L137.27 87.75C137.381 87.1128 137.435 86.4668 137.43 85.82C138.17 85.05 138.54 84.67 138.57 85.82C138.75 84.48 138.76 83.99 138.84 83.53C138.912 82.8822 138.878 82.2269 138.74 81.59L139.11 81.75C139.23 81.01 138.79 79.81 139.11 79.4C139.52 78.62 139.6 76.55 139.17 74.22C138.74 71.89 138.17 69.49 137.72 67.48C136.88 68.61 137.59 65.48 136.72 65.67C136.9 65.35 136.86 64.75 137.3 65.29C136.25 63.47 136.4 62.23 135.13 61.29C135.28 60.95 135.68 61.52 135.73 61.29C135.61 61.17 135.25 60.79 135.29 60.53C135.33 60.27 135.64 60.69 135.88 60.95C134.88 59.04 133.94 59.31 133.19 59.56C133.176 59.1422 133.042 58.7372 132.805 58.3932C132.567 58.0492 132.236 57.7808 131.85 57.62C131.85 57.17 131.85 56.48 132.54 57.62C132.26 56.93 130.31 53.68 129.77 53.99C129.77 53.7 129.23 53.12 129.03 52.99C128.03 51.7 127.97 51.55 126.89 50.35L127.1 50.76C126.1 50.76 126.1 49.83 125.1 48.99H125.18C123.5 46.49 124.18 48.23 122.47 45.75L122.26 46.21C121.36 46.79 120.74 44.05 119.19 43.21C119.29 43.4 119.38 43.61 119.48 43.82C118.6 43.37 118.3 40.99 117.6 40.33C117.49 40.13 117.95 40.41 118.22 40.53C116.59 38.53 117.58 40.84 116.03 39.85C115.95 39.39 116.91 39.38 115.9 38.64C115.261 38.2162 114.554 37.905 113.81 37.72C112.827 37.4122 111.926 36.8895 111.17 36.19C111.37 36.6 111.55 37 110.71 36.76C110.022 36.3319 109.379 35.8361 108.79 35.28C108.481 35.0112 108.146 34.7734 107.79 34.57C107.455 34.4082 107.079 34.349 106.71 34.4C106.59 34.26 106.56 34.18 106.59 34.12C105.59 33.89 103.51 33.05 102.79 33.24C102.69 32.31 101.15 31.93 99.79 31.63C98.43 31.33 97.06 31.2 97.31 30.45L94.31 29.62L94.43 29.5C93.3512 29.0642 92.157 29.0043 91.04 29.33C90.62 29.13 90.97 29.06 91.04 29C90.36 28.76 89.83 28.57 89.38 28.45C88.9854 28.3603 88.584 28.3035 88.18 28.28C87.2872 28.2608 86.395 28.3413 85.52 28.52L85.34 27.99C84.69 28.15 81.34 26.73 78.46 27.22C78.46 27.22 78.55 27.07 78.77 27.01C77.9252 27.0904 77.0748 27.0904 76.23 27.01C75.36 26.94 74.47 26.79 73.64 26.75C71.99 26.63 70.58 26.66 70.08 27.64L68.08 28.28C70.74 28.16 67.77 29.09 68.89 29.28C67.89 29.45 66.16 29.07 67.41 28.79L67.62 28.85C67.98 27.85 64.31 28.98 64.28 28.34C59.1887 29.0733 54.1701 30.2443 49.28 31.84L50.06 32.33L48.44 32.89C47.96 32.89 47.66 32.57 48.83 32.16C48.06 31.99 47.03 33.24 47.06 33.41C44.73 34.07 47.61 32.25 46.92 32.52L46.01 32.96H46.25C45.7648 33.6329 45.0891 34.1449 44.31 34.43C43.41 34.7 43.69 34.23 43.31 34.36C43.31 34.36 43.17 34.36 42.79 34.58C42.13 34.88 41.45 35.15 40.79 35.48L41.79 35.6C41.05 36.29 39.97 36.51 41.14 36.6C40.27 36.49 38.42 37.32 36.74 38.32C35.06 39.32 33.53 40.4 33.05 40.49C32.0825 41.5706 30.9563 42.4979 29.71 43.24C30.11 43.09 30.71 43.48 29.51 44.24C29.13 42.86 27.09 45.31 25.61 45.32C26.22 45.24 25.45 45.91 24.78 46.56C24.11 47.21 23.6 47.99 24.5 47.75C23.5 48.45 24.11 47.41 23.23 47.75C21.45 49.98 18.44 51.75 16.23 54.5C16.33 54.66 16.91 54.4 16.62 55.14L14.73 55.95C14.35 56.53 15.11 57.09 13.84 57.68C14.07 57.63 14.41 57.57 14.16 57.96C12.9257 59.1875 11.8076 60.5265 10.82 61.96C9.82 63.4 8.9 64.88 8.05 66.41C6.38523 69.5123 4.56629 72.5294 2.6 75.45C3.29 74.71 3.07 75.31 2.8 75.97C3.06 75.57 3.19001 76.15 3.45001 76.16C2.84001 76.95 2.33 77.79 1.77 78.63C1.99 78.99 1.71 79.72 1.49 80.44C1.27 81.16 1.05 81.85 1.3 82.09L1.47 81.18C1.82 82.56 3.55 80.09 4.47 80.6C4.3 79.84 4.9 79.12 5.47 78.32C5.84627 77.9331 6.14036 77.4741 6.33456 76.9705C6.52876 76.467 6.61905 75.9293 6.6 75.39C6.96 75.03 6.72 75.89 7.02 75.74C6.85 75.07 7.01999 74.44 7.77999 73.42V73.59C9.20999 70.47 10.31 69.38 12.57 66.29H12.01C12.304 65.9024 12.6586 65.5648 13.06 65.29C13 64.1 11.74 67.2 11.55 66.05C12.27 65.85 13.06 64.63 13.9 63.49C14.74 62.35 15.59 61.27 16.26 61.33C17.06 60.33 15.6 61.28 16.4 60.33L16.84 60.25L16.75 59.76C17.32 59.15 17.87 59.06 18.08 59.2C17.9182 59.4089 17.7775 59.6333 17.66 59.87C18.58 59.24 19.55 57.51 19.87 57.29L18.93 58.08C20.99 55.28 24.24 52.56 26.41 49.95H26.07C26.536 49.3106 27.1369 48.7815 27.83 48.4C28.5705 47.9785 29.2615 47.4753 29.89 46.9L29.84 47.01C30.2301 46.4116 30.7368 45.898 31.33 45.5C30.91 46.14 32.7 45.12 32.12 45.91C34.12 43.91 33.04 44.84 34.12 43.1L34.68 43.18C34.9745 42.4885 35.4872 41.9125 36.14 41.54C35.32 42.44 37.2 41.54 36.32 42.54C37.4352 42.1863 38.4593 41.5924 39.32 40.8C40.01 40.21 40.58 39.8 41.46 40C42.18 38.45 38.93 40.7 39.46 40.16C38.74 40.16 40.07 38.92 40.96 38.6C41.85 38.28 42.96 38.99 45.12 37.98C44.91 38.08 44.93 38.15 44.71 38.25C45.62 38.11 46.13 37.17 47.31 37.16C47.63 36.35 48.62 36.64 48.49 35.84L46.49 36.84C47.55 36.18 48.27 34.84 50.37 34.54C50.1099 34.8827 49.7918 35.1772 49.43 35.41C50.07 35.41 50.43 34.87 51.12 34.87C51.23 35.68 48.68 35.94 47.71 37.05C48.42 37.05 49.8 35.56 49.5 36.61C50.01 35.27 51.71 35.89 52.95 34.61L53 35.09C53.3288 34.8122 53.7002 34.5894 54.1 34.43L53.49 35.28C54.55 34.37 55.98 34.94 57.09 34.36C54.61 35.07 56.37 33.96 55.21 33.93C58.15 32.48 57.31 34.56 60.71 33.54C60.26 33.72 58.88 33.68 59.57 33.29C60.2527 33.2037 60.9448 33.2273 61.62 33.36C63.91 32.81 61.17 32.94 62.09 32.47C63 32.88 63.19 32.02 64.19 31.65L64.28 32.12C67 32 64.84 31.01 67.28 31.03L66.35 31.84L67.58 31.49L67.39 32.07C68.3593 31.6156 69.4397 31.4523 70.5 31.6C70.16 31.3 70.6 30.68 71.81 30.6C72.65 30.85 71.38 31.08 73.08 30.93C72.9093 31.1628 72.6579 31.3235 72.3749 31.3809C72.092 31.4382 71.7979 31.388 71.55 31.24C71.49 31.4 71.19 31.55 71.13 31.72C72.0602 31.8615 73.008 31.8378 73.93 31.65C73.707 31.663 73.4835 31.6359 73.27 31.57C74.07 31.3 74.89 31.06 75.71 30.85C76.1 31.03 75.79 31.18 75.49 31.32C76.0071 31.1848 76.5312 31.078 77.06 31C76.86 31.39 76.9 31.8 75.88 32C76.65 31.86 77.43 31.67 78.2 31.59C78.35 31.76 79.37 32.11 79.07 32.24C80.32 32.5 82.25 31.69 83.92 32.17C84.1223 32.0739 84.3473 32.0358 84.57 32.06C85.36 32.23 86.08 32.49 86.85 32.68C87.6884 32.877 88.5493 32.961 89.41 32.93L90.3 33.86C91.78 34.04 89.08 32.67 91.56 32.97C93.34 33.16 92.05 33.7 92.56 34.03C93.9322 33.7256 95.3691 33.9735 96.56 34.72C96.1198 34.6573 95.6851 34.5603 95.26 34.43ZM112 41.99C111.64 41.88 110.88 41.76 110.81 41.37C111.45 41.14 111.6 41.54 112 41.99ZM131.89 61.65C131.737 61.521 131.614 61.3602 131.529 61.1789C131.445 60.9976 131.401 60.8001 131.4 60.6C131.629 60.9191 131.795 61.2788 131.89 61.66V61.65ZM104.39 51.31C104.34 52.24 104.37 51.93 104.39 51.32V51.31ZM104.49 49.48C104.41 49.3 104.35 49.31 104.28 49.39C104.428 49.7009 104.481 50.0492 104.43 50.39C104.6 50.26 104.6 49.99 104.49 49.49V49.48ZM43.22 34.61H43.58C42.95 35.05 43.09 34.84 43.22 34.62V34.61Z" fill="#D020C9"/>
<path id="Vector_56" d="M129.72 59.21C129.737 59.1077 129.786 59.0133 129.86 58.94C129.72 58.86 129.6 58.91 129.72 59.21Z" fill="#D020C9"/>
<path id="Vector_57" d="M84.08 32.24H84.02C83.9919 32.2596 83.9709 32.2876 83.96 32.32L84.08 32.24Z" fill="#D020C9"/>
<path id="Vector_58" d="M116.74 73.32C116.828 73.5457 116.866 73.7881 116.85 74.03C116.96 73.99 116.97 73.8 116.74 73.32Z" fill="#D020C9"/>
<path id="Vector_59" d="M104.54 39.7L104.42 40.9C104.468 40.5436 104.595 40.2021 104.79 39.9C104.67 39.88 104.47 40.07 104.54 39.7Z" fill="#D020C9"/>
<path id="Vector_60" d="M110.92 31.55C110.92 31.38 111.09 31.26 111.12 31.09L110.9 31.02C110.54 31.61 110.53 32.14 110.92 31.55Z" fill="#D020C9"/>
<path id="Vector_61" d="M106.36 39.04C106.78 39.04 106.85 38.34 107.01 37.56C107.014 37.6032 107.014 37.6468 107.01 37.69C106.5 37.29 106.42 38.17 106.36 39.04Z" fill="#D020C9"/>
<path id="Vector_62" d="M107.05 37.37C107.1 37.1323 107.167 36.8983 107.25 36.67C107.07 36.5 107.12 36.99 107.05 37.37Z" fill="#D020C9"/>
<path id="Vector_63" d="M104.18 47.18C104.3 46.79 103.67 46.92 103.84 46.7C103.33 46.26 104.4 49.32 104.18 47.18Z" fill="#D020C9"/>
<path id="Vector_64" d="M107.83 38.79L107.27 38.92L107.53 39.44L107.83 38.79Z" fill="#D020C9"/>
<path id="Vector_65" d="M106.33 44.71L106.61 43.49C106.52 43.49 106.49 43.34 106.47 43.14C106.37 43.9 106.18 44.73 106.33 44.71Z" fill="#D020C9"/>
<path id="Vector_66" d="M106.47 43.14C106.53 42.8102 106.557 42.4752 106.55 42.14C106.479 42.4683 106.452 42.8046 106.47 43.14Z" fill="#D020C9"/>
<path id="Vector_67" d="M107.54 40.45L107.36 40.78L107.16 41.62L107.54 40.45Z" fill="#D020C9"/>
<path id="Vector_68" d="M107.49 57.99L107.98 59.26C108.18 59.35 108.18 58.96 107.98 58.5C107.79 58.17 107.6 57.7 107.49 57.99Z" fill="#D020C9"/>
<path id="Vector_69" d="M107.96 53.72C107.941 53.952 107.851 54.1724 107.7 54.35L108.32 54.28L107.96 53.72Z" fill="#D020C9"/>
<path id="Vector_70" d="M108.92 57.42C109.13 57.51 109.92 59.12 109.43 57.54C109.23 57.46 108.75 56.22 108.92 57.42Z" fill="#D020C9"/>
<path id="Vector_71" d="M116.31 75.95L116.13 75.67L115.28 76.23L116.31 75.95Z" fill="#D020C9"/>
<path id="Vector_72" d="M128.5 86.83C128.06 86.52 127.93 86.61 127.81 86.72C127.69 86.83 127.58 86.95 127.19 86.52C126.8 86.59 127.85 87.2 127.5 87.23C128.29 87.34 128.6 87.56 128.5 86.83Z" fill="#D020C9"/>
<path id="Vector_73" d="M127.5 87.23H127.08C127.219 87.247 127.36 87.247 127.5 87.23Z" fill="#D020C9"/>
<path id="Vector_74" d="M0.589946 80.3L0.0699463 81.25L0.599946 80.7L0.589946 80.3Z" fill="#D020C9"/>
<path id="Vector_75" d="M0.690002 82.46L0 82.51L0.37001 83.28C0.41001 83.04 0.500002 82.59 0.690002 82.46Z" fill="#D020C9"/>
<path id="Vector_76" d="M113.5 44.61L113.65 44.53C113.65 44.3 113.45 44.15 113.1 43.85L113.5 44.61Z" fill="#D020C9"/>
<path id="Vector_77" d="M102.33 37.63L102.53 37.74L102.38 37.02L102.33 37.63Z" fill="#D020C9"/>
<path id="Vector_78" d="M91.65 34.71C92.1245 34.7749 92.5951 34.865 93.06 34.98C92.09 34.81 91.71 33.99 91.65 34.71Z" fill="#D020C9"/>
</g>
<defs>
<clipPath id="clip0_60_5242">
<rect width="139.45" height="92.44" fill="white"/>
</clipPath>
</defs>
</svg>
